<?xml version="1.0" encoding="iso-8859-1"?>
<?xml-stylesheet type="text/css" href="../../css/main.min.css"?>
<svg version="1.1"
	xmlns="http://www.w3.org/2000/svg"
	xmlns:xlink="http://www.w3.org/1999/xlink"
	width="30" height="30"
	viewBox="0 0 512 512">

	<g class="black-svg">
		<path d="M435.295,457.046L319.11,270.938V114.773h10.453c4.926,0,8.919-3.993,8.919-8.919V47.328c0-4.926-3.993-8.919-8.919-8.919
		H189.78c-4.926,0-8.919,3.993-8.919,8.919v58.526c0,4.926,3.993,8.919,8.919,8.919h10.454v37.196c0,4.926,3.993,8.919,8.919,8.919
		c4.926,0,8.919-3.993,8.919-8.919v-37.196h60.012c4.926,0,8.919-3.993,8.919-8.919s-3.993-8.919-8.919-8.919h-79.384V56.247
		h121.944v40.689H310.19c-4.926,0-8.919,3.993-8.919,8.919v167.639c0,1.67,0.47,3.306,1.353,4.723l109.022,174.635h-30.704
		c-4.926,0-8.919,3.993-8.919,8.919c0,4.926,3.993,8.919,8.919,8.919h41.16c1.48,4.657,1.005,9.706-1.464,14.157
		c-3.236,5.834-9.15,9.316-15.82,9.316H114.525c-6.67,0-12.585-3.483-15.82-9.316c-2.469-4.452-2.943-9.5-1.464-14.157h248.623
		c4.926,0,8.919-3.993,8.919-8.919c0-4.926-3.993-8.919-8.919-8.919H107.696l106.403-170.438h65.77
		c4.926,0,8.919-3.993,8.919-8.919s-3.993-8.919-8.919-8.919h-61.797V181.7c0-4.926-3.993-8.919-8.919-8.919
		c-4.926,0-8.919,3.993-8.919,8.919v89.239L84.05,457.046c-7.016,11.238-7.369,24.864-0.943,36.451
		C89.532,505.083,101.277,512,114.526,512h290.293c13.249,0,24.994-6.916,31.419-18.504
		C442.663,481.909,442.311,468.284,435.295,457.046z"/>
		<path d="M244.195,309.526h-26.754c-4.926,0-8.919,3.993-8.919,8.919s3.993,8.919,8.919,8.919h26.755
		c4.924,0,8.918-3.993,8.918-8.919S249.12,309.526,244.195,309.526z"/>
		<path d="M224.574,343.417h-26.755c-4.926,0-8.919,3.993-8.919,8.919c0,4.926,3.993,8.919,8.919,8.919h26.755
		c4.926,0,8.919-3.993,8.919-8.919C233.493,347.41,229.5,343.417,224.574,343.417z"/>
		<path d="M204.954,377.306h-26.755c-4.926,0-8.919,3.993-8.919,8.919s3.993,8.919,8.919,8.919h26.755
		c4.926,0,8.919-3.993,8.919-8.919S209.88,377.306,204.954,377.306z"/>
		<path d="M398.766,237.39c-20.9,0-37.904,17.003-37.904,37.904c0,20.901,17.004,37.904,37.904,37.904s37.904-17.004,37.904-37.904
		S419.665,237.39,398.766,237.39z M398.766,295.36c-11.064,0-20.066-9.002-20.066-20.066c0-11.064,9.002-20.066,20.066-20.066
		c11.064,0,20.066,9.001,20.066,20.066S409.83,295.36,398.766,295.36z"/>
		<path d="M144.986,117.783c-18.559,0-33.66,15.1-33.66,33.658c0,18.558,15.1,33.658,33.66,33.658s33.658-15.099,33.658-33.658
		C178.645,132.882,163.546,117.783,144.986,117.783z M144.986,167.262c-8.724,0-15.822-7.097-15.822-15.821
		s7.098-15.822,15.822-15.822c8.724,0,15.821,7.098,15.821,15.822C160.807,160.165,153.71,167.262,144.986,167.262z"/>
		<path d="M97.823,283.229c-14.69,0-26.641,11.951-26.641,26.641s11.951,26.641,26.641,26.641s26.641-11.951,26.641-26.641
		S112.513,283.229,97.823,283.229z M97.823,318.674c-4.854,0-8.803-3.949-8.803-8.803s3.949-8.803,8.803-8.803
		s8.803,3.949,8.803,8.803S102.677,318.674,97.823,318.674z"/>
		<circle cx="166.128" cy="237.24" r="8.919"/>
		<circle cx="297.531" cy="8.919" r="8.919"/>
		<circle cx="359.63" cy="162.382" r="8.919"/>
	</g>

</svg>
