<?xml version="1.0" encoding="iso-8859-1"?>
<?xml-stylesheet type="text/css" href="../assets/final/main.min.css"?>
<svg width="35px" height="35px"
	viewBox="0 0 611.98 611.98"
	xmlns="http://www.w3.org/2000/svg"
	version="1.1">
	<style type="text/css">
		<![CDATA[
			.hero-angle {
				fill: #fff;
			}
		]]>
	</style>
	<path class="hero-angle"
		d="M306.001,467.92c-15.412,0-29.892-5.947-40.738-16.822L13.926,199.79c-16.974-16.944-14.811-30.854-12.017-37.613
	c2.794-6.76,11.056-18.116,35.09-18.116h537.975c24.033,0,32.296,11.356,35.09,18.146c2.794,6.76,4.987,20.669-12.018,37.613
	L346.709,451.127C335.863,461.973,321.413,467.92,306.001,467.92z M31.651,174.494c0.781,1.112,1.923,2.494,3.515,4.056
	l251.337,251.308c10.335,10.334,28.661,10.334,38.995,0L576.836,178.55c1.593-1.592,2.704-2.974,3.516-4.086
	c-1.353-0.18-3.124-0.361-5.378-0.361H37C34.775,174.104,32.973,174.284,31.651,174.494z"/>

</svg>
